<?xml version="1.0" encoding="UTF-8" standalone="no"?>
<svg
   xmlns:dc="http://purl.org/dc/elements/1.1/"
   xmlns:cc="http://creativecommons.org/ns#"
   xmlns:rdf="http://www.w3.org/1999/02/22-rdf-syntax-ns#"
   xmlns:svg="http://www.w3.org/2000/svg"
   xmlns="http://www.w3.org/2000/svg"
   xmlns:sodipodi="http://sodipodi.sourceforge.net/DTD/sodipodi-0.dtd"
   xmlns:inkscape="http://www.inkscape.org/namespaces/inkscape"
   style="overflow:visible"
   viewBox="0 0 386.32175 111.4"
   enable-background="new 0 0 400 621.632"
   version="1.1"
   width="386.32175"
   height="111.39964"
   overflow="visible"
   xml:space="preserve"
   id="svg2"
   sodipodi:docname="logo_v1.2_nurschrift.svg"
   inkscape:version="0.92.3 (2405546, 2018-03-11)"><sodipodi:namedview
     pagecolor="#ffffff"
     bordercolor="#666666"
     borderopacity="1"
     objecttolerance="10"
     gridtolerance="10"
     guidetolerance="10"
     inkscape:pageopacity="0"
     inkscape:pageshadow="2"
     inkscape:window-width="2560"
     inkscape:window-height="1376"
     id="namedview29"
     showgrid="false"
     inkscape:zoom="0.39454127"
     inkscape:cx="193.1609"
     inkscape:cy="299.0815"
     inkscape:window-x="0"
     inkscape:window-y="27"
     inkscape:window-maximized="1"
     inkscape:current-layer="svg2" /><defs
     id="defs37" /><metadata
     id="metadata67"><rdf:RDF><cc:Work
         rdf:about=""><dc:format>image/svg+xml</dc:format><dc:type
           rdf:resource="http://purl.org/dc/dcmitype/StillImage" /><dc:title></dc:title></cc:Work></rdf:RDF></metadata><g
     transform="translate(-6.8389951,-486.76493)"
     id="g12"
     style="fill:#59921e" /><g
     id="g3625"
     transform="translate(-6.8391197,-486.765)"><path
       d="m 55.804503,555.72 c 0,4.385 -2.222,6.576 -6.665,6.576 h -22.306 c -13.33,0 -19.9950001,-6.813 -19.9950001,-20.439 v -17.15 c 0,-13.448 6.6650001,-20.173 19.9950001,-20.173 h 21.95 c 4.65,-0.029 6.977,2.177 6.977,6.62 -0.03,4.325 -2.297,6.532 -6.799,6.621 h -22.305 c -4.325,-0.029 -6.487,2.296 -6.487,6.976 v 17.418 c 0,4.533 2.266,6.799 6.799,6.799 l 22.306,0.044 c 4.352,0 6.53,2.23 6.53,6.7 z"
       id="path26"
       style="fill:#59921e"
       inkscape:connector-curvature="0" /><path
       d="m 113.6555,511.16 v 49.232 c 0,13.123 -6.665,19.685 -19.994997,19.685 h -13.862 c -4.266,0 -6.413,-2.222 -6.442,-6.665 -0.03,-4.414 2.088,-6.621 6.354,-6.621 h 15.863 c 3.169,0.029 4.753997,-1.511 4.753997,-4.621 H 84.686503 c -13.33,0 -19.995,-6.813 -19.995,-20.439 v -30.659 c 0,-4.443 2.222,-6.665 6.665,-6.665 4.443,0 6.665,2.252 6.665,6.754 v 30.837 c 0,4.563 2.266,6.843 6.799,6.843 H 100.3275 v -37.68 c 0,-4.502 2.266,-6.754 6.799,-6.754 4.35,-0.02 6.53,2.24 6.53,6.74 z"
       id="path28"
       style="fill:#59921e"
       inkscape:connector-curvature="0" /><path
       d="m 147.2055,500.05 -4.532,0.045 c -4.533,0 -6.799,2.267 -6.799,6.798 v 6.532 l 11.064,-0.045 c 4.502,0.09 6.754,2.297 6.754,6.621 0,4.443 -2.326,6.65 -6.977,6.62 l -10.842,0.045 v 29.015 c 0.029,4.443 -2.192,6.65 -6.665,6.621 -4.443,0 -6.665,-2.222 -6.665,-6.665 v -48.433 c 0,-13.626 6.665,-20.439 19.995,-20.439 h 4.577 c 4.443,0 6.665,2.192 6.665,6.576 0.01,4.46 -2.19,6.7 -6.57,6.7 z"
       id="path30"
       style="fill:#59921e"
       inkscape:connector-curvature="0" /><path
       d="m 204.7455,562.3 c -4.533,0 -6.799,-2.251 -6.799,-6.754 v -11.064 l -22.083,-0.044 -0.045,11.108 c 0,4.503 -2.222,6.754 -6.665,6.754 -4.443,0 -6.665,-2.222 -6.665,-6.665 v -30.659 c 0,-13.626 6.665,-20.439 19.995,-20.439 l 22.128,0.044 c 4.443,0 6.666,2.192 6.666,6.576 v 44.39 c -0.02,4.5 -2.2,6.75 -6.55,6.75 z m -6.8,-31.24 v -13.196 h -15.329 c -4.533,0 -6.799,2.281 -6.799,6.843 v 6.354 h 22.13 z"
       id="path32"
       style="fill:#59921e"
       inkscape:connector-curvature="0" /><path
       d="m 269.3055,555.72 c 0,4.385 -2.221,6.576 -6.664,6.576 h -22.307 c -13.33,0 -19.994,-6.813 -19.994,-20.439 v -17.15 c 0,-13.448 6.664,-20.173 19.994,-20.173 h 21.951 c 4.65,-0.029 6.977,2.177 6.977,6.62 -0.031,4.325 -2.297,6.532 -6.799,6.621 h -22.307 c -4.324,-0.029 -6.486,2.296 -6.486,6.976 v 17.418 c 0,4.533 2.266,6.799 6.799,6.799 l 22.305,0.044 c 4.35,0 6.53,2.23 6.53,6.7 z"
       id="path34"
       style="fill:#59921e"
       inkscape:connector-curvature="0" /><path
       d="m 327.1555,555.72 c 0,4.385 -2.222,6.576 -6.665,6.576 h -22.306 c -13.33,0 -19.995,-6.813 -19.995,-20.439 v -30.659 c 0,-4.443 2.222,-6.665 6.665,-6.665 h 35.28 c 4.65,-0.029 6.977,2.177 6.977,6.62 -0.03,4.325 -2.297,6.532 -6.799,6.621 l -28.793,-0.045 v 8.887 l 19.951,-0.089 c 4.502,0.06 6.754,2.355 6.754,6.888 0.029,4.325 -2.178,6.487 -6.621,6.487 l -20.084,0.044 v 2.222 c 0,4.533 2.266,6.799 6.799,6.799 l 22.306,0.044 c 4.35,0 6.52,2.23 6.52,6.7 z"
       id="path36"
       style="fill:#59921e"
       inkscape:connector-curvature="0" /><path
       style="fill:#197b28"
       d="m 170.9555,597.69 v -25.063 h 18.563 v 4.25 h -13.5 v 5.531 h 12.563 v 4.25 h -12.563 v 6.781 h 13.969 v 4.25 h -19.03 z"
       id="path43"
       inkscape:connector-curvature="0" /><path
       style="fill:#197b28"
       d="m 216.8955,597.69 h -5.504 l -2.183,-5.688 h -10.03 l -2.079,5.688 h -5.366 l 9.759,-25.063 h 5.393 l 10.01,25.06 z m -9.29,-9.94 -3.474,-9.281 -3.392,9.281 h 6.86 z"
       id="path45"
       inkscape:connector-curvature="0" /><path
       style="fill:#197b28"
       d="m 218.2355,589.54 4.938,-0.469 c 0.296,1.655 0.896,2.872 1.801,3.647 0.904,0.777 2.123,1.165 3.66,1.165 1.627,0 2.852,-0.345 3.677,-1.035 0.825,-0.69 1.237,-1.497 1.237,-2.422 0,-0.593 -0.174,-1.099 -0.52,-1.515 -0.348,-0.416 -0.953,-0.779 -1.816,-1.087 -0.592,-0.204 -1.938,-0.569 -4.041,-1.093 -2.707,-0.672 -4.605,-1.497 -5.695,-2.477 -1.535,-1.378 -2.303,-3.059 -2.303,-5.041 0,-1.275 0.361,-2.469 1.084,-3.578 0.722,-1.111 1.763,-1.957 3.122,-2.537 1.359,-0.582 3,-0.872 4.923,-0.872 3.14,0 5.503,0.692 7.09,2.078 1.587,1.386 2.42,3.234 2.5,5.547 l -5.063,0.188 c -0.216,-1.288 -0.678,-2.214 -1.387,-2.778 -0.709,-0.564 -1.771,-0.847 -3.189,-0.847 -1.463,0 -2.609,0.302 -3.437,0.905 -0.533,0.389 -0.8,0.906 -0.8,1.557 0,0.592 0.25,1.1 0.75,1.521 0.637,0.535 2.182,1.094 4.637,1.674 2.455,0.58 4.271,1.182 5.447,1.803 1.177,0.621 2.098,1.471 2.762,2.549 0.666,1.077 0.998,2.408 0.998,3.993 0,1.437 -0.398,2.782 -1.197,4.036 -0.797,1.255 -1.926,2.188 -3.384,2.797 -1.459,0.609 -3.276,0.915 -5.452,0.915 -3.168,0 -5.602,-0.734 -7.299,-2.203 -1.7,-1.45 -2.71,-3.59 -3.04,-6.4 z"
       id="path47"
       inkscape:connector-curvature="0" /><path
       style="fill:#197b28"
       d="m 249.4855,597.69 v -10.548 l -9.172,-14.515 h 5.929 l 5.911,9.913 5.747,-9.913 h 5.819 l -9.172,14.548 v 10.515 h -5.07 z"
       id="path49"
       inkscape:connector-curvature="0" /><path
       style="fill:#197b28"
       d="m 275.3555,597.69 v -25.063 h 10.652 c 2.678,0 4.625,0.226 5.838,0.675 1.215,0.451 2.186,1.251 2.916,2.401 0.729,1.15 1.094,2.466 1.094,3.947 0,1.88 -0.552,3.433 -1.654,4.657 -1.104,1.225 -2.753,1.996 -4.948,2.314 1.091,0.639 1.991,1.341 2.702,2.104 0.709,0.765 1.667,2.121 2.872,4.071 l 3.06,4.892 h -6.05 l -3.642,-5.463 c -1.302,-1.947 -2.193,-3.175 -2.672,-3.682 -0.48,-0.507 -0.988,-0.854 -1.525,-1.042 -0.537,-0.188 -1.387,-0.282 -2.553,-0.282 h -1.027 v 10.469 h -5.06 z m 5.07,-14.47 h 3.742 c 2.427,0 3.941,-0.103 4.545,-0.307 0.604,-0.204 1.077,-0.558 1.419,-1.058 0.342,-0.5 0.513,-1.125 0.513,-1.876 0,-0.841 -0.225,-1.521 -0.676,-2.038 -0.449,-0.517 -1.084,-0.844 -1.904,-0.98 -0.41,-0.057 -1.641,-0.085 -3.691,-0.085 h -3.947 v 6.36 z"
       id="path51"
       inkscape:connector-curvature="0" /><path
       style="fill:#197b28"
       d="m 300.4755,597.69 v -25.063 h 5.063 v 25.063 h -5.06 z"
       id="path53"
       inkscape:connector-curvature="0" /><path
       style="fill:#197b28"
       d="m 310.3555,572.63 h 9.23 c 2.081,0 3.668,0.159 4.76,0.479 1.467,0.434 2.725,1.202 3.771,2.308 1.046,1.105 1.842,2.459 2.389,4.061 0.545,1.602 0.818,3.576 0.818,5.924 0,2.063 -0.256,3.841 -0.768,5.334 -0.626,1.824 -1.519,3.3 -2.679,4.428 -0.876,0.855 -2.06,1.521 -3.549,2 -1.115,0.354 -2.604,0.53 -4.47,0.53 h -9.504 v -25.06 z m 5.07,4.25 v 16.563 h 3.768 c 1.408,0 2.426,-0.079 3.051,-0.239 0.818,-0.204 1.496,-0.551 2.037,-1.04 0.539,-0.489 0.979,-1.294 1.32,-2.413 0.341,-1.121 0.512,-2.646 0.512,-4.58 0,-1.934 -0.171,-3.417 -0.512,-4.452 -0.341,-1.034 -0.818,-1.842 -1.432,-2.422 -0.614,-0.58 -1.393,-0.972 -2.335,-1.177 -0.705,-0.16 -2.085,-0.239 -4.142,-0.239 h -2.27 z"
       id="path55"
       inkscape:connector-curvature="0" /><path
       style="fill:#197b28"
       d="m 335.4755,597.69 v -25.063 h 5.063 v 25.063 h -5.06 z"
       id="path57"
       inkscape:connector-curvature="0" /><path
       style="fill:#197b28"
       d="m 345.3555,597.69 v -25.063 h 4.91 l 10.309,16.797 v -16.797 h 4.688 v 25.063 h -5.065 l -10.153,-16.425 v 16.425 h -4.69 z"
       id="path59"
       inkscape:connector-curvature="0" /><path
       style="fill:#197b28"
       d="m 382.2555,588.54 v -4.25 h 10.906 v 10.006 c -1.059,1.022 -2.592,1.923 -4.602,2.702 -2.008,0.777 -4.043,1.167 -6.104,1.167 -2.617,0 -4.898,-0.55 -6.846,-1.651 -1.945,-1.1 -3.408,-2.674 -4.387,-4.722 -0.979,-2.048 -1.469,-4.274 -1.469,-6.681 0,-2.612 0.547,-4.934 1.64,-6.964 1.093,-2.03 2.693,-3.587 4.8,-4.671 1.605,-0.832 3.604,-1.249 5.996,-1.249 3.107,0 5.537,0.65 7.285,1.951 1.748,1.301 2.872,3.099 3.373,5.393 l -5.031,0.938 c -0.353,-1.226 -1.016,-2.194 -1.987,-2.903 -0.972,-0.711 -2.187,-1.065 -3.642,-1.065 -2.206,0 -3.961,0.703 -5.262,2.108 -1.303,1.406 -1.953,3.491 -1.953,6.256 0,2.983 0.658,5.221 1.976,6.711 1.317,1.492 3.042,2.237 5.177,2.237 1.057,0 2.115,-0.208 3.177,-0.624 1.062,-0.415 1.973,-0.919 2.733,-1.512 v -3.177 h -5.79 z"
       id="path61"
       inkscape:connector-curvature="0" /></g></svg>